<svg width="438" height="259" viewBox="0 0 438 259" fill="none" xmlns="http://www.w3.org/2000/svg">
<path d="M311.019 230.423C290.697 244.653 262.687 239.714 248.457 219.392C234.227 199.07 239.166 171.06 259.488 156.83L349.436 93.8481C369.758 79.6184 397.768 84.5573 411.998 104.88C426.228 125.202 421.289 153.212 400.966 167.441L311.019 230.423Z" fill="#F9AB00"/>
<path d="M353.314 99.3825L263.365 162.365C246.1 174.454 241.905 198.25 253.993 215.515C266.082 232.78 289.878 236.975 307.143 224.887L397.092 161.904C414.355 149.815 418.552 126.018 406.463 108.754L412 104.878L413.276 106.804C425.498 126.287 420.974 151.938 402.826 166.067L400.968 167.44L311.019 230.423C290.697 244.653 262.687 239.714 248.457 219.392L247.181 217.465C234.552 197.333 239.801 170.614 259.488 156.829L349.437 93.8462L351.363 92.5698C371.496 79.9423 398.215 85.191 412 104.878L406.463 108.754C394.375 91.4905 370.578 87.2953 353.314 99.3825Z" fill="black"/>
<path d="M257.918 99.0731C237.86 84.474 233.434 56.3784 248.033 36.3199C262.632 16.2613 290.728 11.8356 310.786 26.4348L399.567 91.0513C419.625 105.65 424.051 133.746 409.452 153.805C394.853 173.863 366.757 178.289 346.698 163.69L257.918 99.0731Z" fill="#34A853"/>
<path d="M395.592 96.5164L306.81 31.8988C289.77 19.4963 265.901 23.2564 253.498 40.2967C241.095 57.3373 244.855 81.2063 261.896 93.6089L350.677 158.227C367.718 170.628 391.588 166.869 403.99 149.829L409.454 153.806L408.047 155.639C393.589 173.525 367.86 177.577 348.603 165.002L346.7 163.691L257.919 99.0733C237.86 84.4742 233.434 56.378 248.033 36.3195L249.441 34.4867C264.38 16.004 291.355 12.2912 310.787 26.4343L399.569 91.0519L401.402 92.4594C419.883 107.399 423.597 134.374 409.454 153.806L403.99 149.829C416.392 132.789 412.631 108.919 395.592 96.5164Z" fill="black"/>
<path d="M126.949 27.7172C147.303 13.534 175.302 18.537 189.485 38.8917C203.668 59.2464 198.665 87.245 178.311 101.428L88.2195 164.204C67.8648 178.387 39.8662 173.384 25.683 153.03C11.4998 132.675 16.5028 104.676 36.8575 90.493L126.949 27.7172Z" fill="#EA4335"/>
<path d="M84.3543 158.661L174.447 95.884C191.739 83.8348 195.989 60.0481 183.94 42.7559C171.891 25.4637 148.104 21.2133 130.812 33.2626L40.7195 96.0394C23.4289 108.089 19.1774 131.876 31.2262 149.167L25.6811 153.031L24.4091 151.102C12.2318 131.591 16.8147 105.951 34.9943 91.8637L36.8557 90.4943L126.948 27.7175C147.303 13.5342 175.302 18.5373 189.485 38.892L190.757 40.8213C203.34 60.9826 198.03 87.6889 178.311 101.429L88.2182 164.206L86.2889 165.478C66.1279 178.059 39.421 172.75 25.6811 153.031L31.2262 149.167C43.2752 166.459 67.0623 170.708 84.3543 158.661Z" fill="black"/>
<path d="M179.747 159.188C199.772 173.833 204.133 201.939 189.488 221.964C174.843 241.989 146.738 246.35 126.713 231.705L38.0805 166.886C18.0554 152.241 13.694 124.135 28.339 104.11C42.984 84.0849 71.0896 79.7235 91.1147 94.3685L179.747 159.188Z" fill="#4285FA"/>
<path d="M42.0679 161.43L130.701 226.25C147.713 238.692 171.591 234.986 184.033 217.974C196.474 200.962 192.769 177.085 175.757 164.643L87.1232 99.8225C70.1112 87.3825 46.2331 91.0869 33.792 108.098L28.3366 104.109L29.7482 102.279C44.2465 84.4254 69.9854 80.4325 89.2132 93.0514L91.1129 94.3672L179.746 159.188C199.772 173.833 204.133 201.939 189.488 221.964L188.076 223.794C173.095 242.242 146.111 245.893 126.712 231.706L38.0782 166.885L36.2486 165.473C17.8014 150.491 14.1497 123.508 28.3366 104.109L33.792 108.098C21.3511 125.11 25.0573 148.988 42.0679 161.43Z" fill="black"/>
</svg>
