<svg width="21" height="20" viewBox="0 0 21 20" fill="none" xmlns="http://www.w3.org/2000/svg">
<path d="M18.4583 17.5H16.5833V2.5H17.2083C17.374 2.5 17.533 2.43415 17.6502 2.31694C17.7674 2.19973 17.8333 2.04076 17.8333 1.875C17.8333 1.70924 17.7674 1.55027 17.6502 1.43306C17.533 1.31585 17.374 1.25 17.2083 1.25H3.45825C3.29249 1.25 3.13352 1.31585 3.01631 1.43306C2.8991 1.55027 2.83325 1.70924 2.83325 1.875C2.83325 2.04076 2.8991 2.19973 3.01631 2.31694C3.13352 2.43415 3.29249 2.5 3.45825 2.5H4.08325V17.5H2.20825C2.04249 17.5 1.88352 17.5658 1.76631 17.6831C1.6491 17.8003 1.58325 17.9592 1.58325 18.125C1.58325 18.2908 1.6491 18.4497 1.76631 18.5669C1.88352 18.6842 2.04249 18.75 2.20825 18.75H18.4583C18.624 18.75 18.783 18.6842 18.9002 18.5669C19.0174 18.4497 19.0833 18.2908 19.0833 18.125C19.0833 17.9592 19.0174 17.8003 18.9002 17.6831C18.783 17.5658 18.624 17.5 18.4583 17.5ZM5.33325 2.5H15.3333V17.5H12.8333V14.375C12.8333 14.2092 12.7674 14.0503 12.6502 13.9331C12.533 13.8158 12.374 13.75 12.2083 13.75H8.45825C8.29249 13.75 8.13352 13.8158 8.01631 13.9331C7.8991 14.0503 7.83325 14.2092 7.83325 14.375V17.5H5.33325V2.5ZM11.5833 17.5H9.08325V15H11.5833V17.5ZM7.20825 5C7.20825 4.83424 7.2741 4.67527 7.39131 4.55806C7.50852 4.44085 7.66749 4.375 7.83325 4.375H9.08325C9.24901 4.375 9.40798 4.44085 9.52519 4.55806C9.6424 4.67527 9.70825 4.83424 9.70825 5C9.70825 5.16576 9.6424 5.32473 9.52519 5.44194C9.40798 5.55915 9.24901 5.625 9.08325 5.625H7.83325C7.66749 5.625 7.50852 5.55915 7.39131 5.44194C7.2741 5.32473 7.20825 5.16576 7.20825 5ZM10.9583 5C10.9583 4.83424 11.0241 4.67527 11.1413 4.55806C11.2585 4.44085 11.4175 4.375 11.5833 4.375H12.8333C12.999 4.375 13.158 4.44085 13.2752 4.55806C13.3924 4.67527 13.4583 4.83424 13.4583 5C13.4583 5.16576 13.3924 5.32473 13.2752 5.44194C13.158 5.55915 12.999 5.625 12.8333 5.625H11.5833C11.4175 5.625 11.2585 5.55915 11.1413 5.44194C11.0241 5.32473 10.9583 5.16576 10.9583 5ZM7.20825 8.125C7.20825 7.95924 7.2741 7.80027 7.39131 7.68306C7.50852 7.56585 7.66749 7.5 7.83325 7.5H9.08325C9.24901 7.5 9.40798 7.56585 9.52519 7.68306C9.6424 7.80027 9.70825 7.95924 9.70825 8.125C9.70825 8.29076 9.6424 8.44973 9.52519 8.56694C9.40798 8.68415 9.24901 8.75 9.08325 8.75H7.83325C7.66749 8.75 7.50852 8.68415 7.39131 8.56694C7.2741 8.44973 7.20825 8.29076 7.20825 8.125ZM10.9583 8.125C10.9583 7.95924 11.0241 7.80027 11.1413 7.68306C11.2585 7.56585 11.4175 7.5 11.5833 7.5H12.8333C12.999 7.5 13.158 7.56585 13.2752 7.68306C13.3924 7.80027 13.4583 7.95924 13.4583 8.125C13.4583 8.29076 13.3924 8.44973 13.2752 8.56694C13.158 8.68415 12.999 8.75 12.8333 8.75H11.5833C11.4175 8.75 11.2585 8.68415 11.1413 8.56694C11.0241 8.44973 10.9583 8.29076 10.9583 8.125ZM7.20825 11.25C7.20825 11.0842 7.2741 10.9253 7.39131 10.8081C7.50852 10.6908 7.66749 10.625 7.83325 10.625H9.08325C9.24901 10.625 9.40798 10.6908 9.52519 10.8081C9.6424 10.9253 9.70825 11.0842 9.70825 11.25C9.70825 11.4158 9.6424 11.5747 9.52519 11.6919C9.40798 11.8092 9.24901 11.875 9.08325 11.875H7.83325C7.66749 11.875 7.50852 11.8092 7.39131 11.6919C7.2741 11.5747 7.20825 11.4158 7.20825 11.25ZM10.9583 11.25C10.9583 11.0842 11.0241 10.9253 11.1413 10.8081C11.2585 10.6908 11.4175 10.625 11.5833 10.625H12.8333C12.999 10.625 13.158 10.6908 13.2752 10.8081C13.3924 10.9253 13.4583 11.0842 13.4583 11.25C13.4583 11.4158 13.3924 11.5747 13.2752 11.6919C13.158 11.8092 12.999 11.875 12.8333 11.875H11.5833C11.4175 11.875 11.2585 11.8092 11.1413 11.6919C11.0241 11.5747 10.9583 11.4158 10.9583 11.25Z" fill="#3C83F6"/>
</svg>
