<svg width="28" height="28" viewBox="0 0 28 28" fill="none" xmlns="http://www.w3.org/2000/svg">
<path d="M23.8438 5.88086H4.15625C3.93869 5.88086 3.73004 5.96729 3.5762 6.12112C3.42236 6.27496 3.33594 6.48361 3.33594 6.70117V20.6465C3.33594 21.0816 3.50879 21.4989 3.81647 21.8066C4.12414 22.1143 4.54144 22.2871 4.97656 22.2871H23.0234C23.4586 22.2871 23.8759 22.1143 24.1835 21.8066C24.4912 21.4989 24.6641 21.0816 24.6641 20.6465V6.70117C24.6641 6.48361 24.5776 6.27496 24.4238 6.12112C24.27 5.96729 24.0613 5.88086 23.8438 5.88086ZM21.7345 7.52148L14 14.6121L6.26548 7.52148H21.7345ZM23.0234 20.6465H4.97656V8.56636L13.4453 16.3296C13.5966 16.4685 13.7946 16.5456 14 16.5456C14.2054 16.5456 14.4034 16.4685 14.5547 16.3296L23.0234 8.56636V20.6465Z" fill="white"/>
</svg>
