<svg width="21" height="20" viewBox="0 0 21 20" fill="none" xmlns="http://www.w3.org/2000/svg">
<path d="M16.6742 5.91251C16.8652 5.29626 16.9265 4.64711 16.8542 4.00599C16.7818 3.36487 16.5775 2.7457 16.2539 2.18751C16.199 2.09248 16.1201 2.01357 16.0251 1.95871C15.93 1.90385 15.8222 1.87499 15.7125 1.87501C14.9845 1.87349 14.2663 2.04225 13.6151 2.36781C12.964 2.69337 12.3981 3.16671 11.9625 3.75001H10.0875C9.65193 3.16671 9.08597 2.69337 8.43484 2.36781C7.78372 2.04225 7.06547 1.87349 6.33749 1.87501C6.22776 1.87499 6.11995 1.90385 6.02491 1.95871C5.92988 2.01357 5.85095 2.09248 5.79609 2.18751C5.47253 2.7457 5.26814 3.36487 5.1958 4.00599C5.12346 4.64711 5.18474 5.29626 5.37577 5.91251C4.98962 6.58651 4.78278 7.34827 4.77499 8.12501V8.75001C4.77631 9.80751 5.1602 10.8288 5.85579 11.6254C6.55138 12.4219 7.51168 12.9399 8.55937 13.0836C8.13172 13.6308 7.89959 14.3055 7.89999 15V15.625H6.02499C5.52771 15.625 5.0508 15.4275 4.69917 15.0758C4.34754 14.7242 4.14999 14.2473 4.14999 13.75C4.14999 13.3396 4.06916 12.9333 3.91212 12.5541C3.75507 12.175 3.52489 11.8305 3.2347 11.5403C2.94452 11.2501 2.60002 11.0199 2.22088 10.8629C1.84174 10.7058 1.43537 10.625 1.02499 10.625C0.859234 10.625 0.700262 10.6909 0.583052 10.8081C0.465842 10.9253 0.399994 11.0842 0.399994 11.25C0.399994 11.4158 0.465842 11.5747 0.583052 11.692C0.700262 11.8092 0.859234 11.875 1.02499 11.875C1.52227 11.875 1.99919 12.0726 2.35082 12.4242C2.70245 12.7758 2.89999 13.2527 2.89999 13.75C2.89999 14.5788 3.22923 15.3737 3.81529 15.9597C4.40134 16.5458 5.19619 16.875 6.02499 16.875H7.89999V18.125C7.89999 18.2908 7.96584 18.4497 8.08305 18.567C8.20026 18.6842 8.35923 18.75 8.52499 18.75C8.69075 18.75 8.84973 18.6842 8.96694 18.567C9.08415 18.4497 9.14999 18.2908 9.14999 18.125V15C9.14999 14.5027 9.34754 14.0258 9.69917 13.6742C10.0508 13.3226 10.5277 13.125 11.025 13.125C11.5223 13.125 11.9992 13.3226 12.3508 13.6742C12.7024 14.0258 12.9 14.5027 12.9 15V18.125C12.9 18.2908 12.9658 18.4497 13.0831 18.567C13.2003 18.6842 13.3592 18.75 13.525 18.75C13.6908 18.75 13.8497 18.6842 13.9669 18.567C14.0841 18.4497 14.15 18.2908 14.15 18.125V15C14.1504 14.3055 13.9183 13.6308 13.4906 13.0836C14.5383 12.9399 15.4986 12.4219 16.1942 11.6254C16.8898 10.8288 17.2737 9.80751 17.275 8.75001V8.12501C17.2672 7.34827 17.0604 6.58651 16.6742 5.91251ZM16.025 8.75001C16.025 9.57881 15.6958 10.3737 15.1097 10.9597C14.5237 11.5458 13.7288 11.875 12.9 11.875H9.14999C8.32119 11.875 7.52634 11.5458 6.94029 10.9597C6.35423 10.3737 6.02499 9.57881 6.02499 8.75001V8.12501C6.03266 7.50003 6.21977 6.89042 6.56406 6.36876C6.62824 6.28417 6.66981 6.18461 6.68484 6.0795C6.69988 5.97439 6.68788 5.86717 6.64999 5.76798C6.4872 5.34813 6.40885 4.90029 6.41944 4.45011C6.43003 3.99993 6.52935 3.55627 6.71171 3.14454C7.22321 3.19957 7.71576 3.36901 8.15286 3.6403C8.58996 3.91159 8.9604 4.27779 9.23671 4.71173C9.29302 4.79978 9.37051 4.8723 9.46209 4.92267C9.55367 4.97303 9.65642 4.99962 9.76093 5.00001H12.2883C12.3932 5.00001 12.4964 4.97361 12.5884 4.92323C12.6805 4.87285 12.7583 4.80011 12.8148 4.71173C13.0911 4.27775 13.4615 3.91153 13.8986 3.64023C14.3358 3.36893 14.8283 3.19951 15.3398 3.14454C15.5219 3.55637 15.621 4.00009 15.6313 4.45027C15.6416 4.90044 15.563 5.34823 15.4 5.76798C15.3622 5.86622 15.3496 5.97235 15.3632 6.07672C15.3769 6.18109 15.4164 6.2804 15.4781 6.36563C15.8258 6.8873 16.0157 7.49816 16.025 8.12501V8.75001Z" fill="#62768A"/>
</svg>
