<svg width="28" height="28" viewBox="0 0 28 28" fill="none" xmlns="http://www.w3.org/2000/svg">
<path d="M13.9377 9.16162C12.9643 9.16162 12.0127 9.45028 11.2033 9.99111C10.3939 10.5319 9.76305 11.3006 9.39052 12.2C9.018 13.0993 8.92053 14.089 9.11044 15.0437C9.30035 15.9985 9.76912 16.8755 10.4575 17.5638C11.1458 18.2521 12.0228 18.7209 12.9775 18.9108C13.9323 19.1007 14.9219 19.0032 15.8213 18.6307C16.7206 18.2582 17.4893 17.6273 18.0301 16.8179C18.571 16.0085 18.8596 15.057 18.8596 14.0835C18.8583 12.7786 18.3393 11.5274 17.4165 10.6047C16.4938 9.68197 15.2427 9.16298 13.9377 9.16162ZM13.9377 17.3647C13.2888 17.3647 12.6544 17.1723 12.1148 16.8118C11.5752 16.4512 11.1546 15.9387 10.9063 15.3392C10.6579 14.7396 10.5929 14.0799 10.7195 13.4434C10.8461 12.8069 11.1587 12.2222 11.6175 11.7633C12.0764 11.3044 12.6611 10.9919 13.2976 10.8653C13.9341 10.7387 14.5939 10.8037 15.1934 11.052C15.793 11.3004 16.3055 11.7209 16.666 12.2605C17.0266 12.8001 17.219 13.4345 17.219 14.0835C17.219 14.9537 16.8733 15.7883 16.2579 16.4037C15.6426 17.019 14.808 17.3647 13.9377 17.3647ZM18.8596 3.41943H9.01587C7.49345 3.42106 6.03384 4.02656 4.95733 5.10308C3.88081 6.1796 3.27531 7.6392 3.27368 9.16162V19.0054C3.27531 20.5278 3.88081 21.9874 4.95733 23.0639C6.03384 24.1404 7.49345 24.7459 9.01587 24.7476H18.8596C20.382 24.7459 21.8416 24.1404 22.9182 23.0639C23.9947 21.9874 24.6002 20.5278 24.6018 19.0054V9.16162C24.6002 7.6392 23.9947 6.1796 22.9182 5.10308C21.8416 4.02656 20.382 3.42106 18.8596 3.41943ZM22.9612 19.0054C22.9612 20.0932 22.5291 21.1364 21.7599 21.9056C20.9907 22.6748 19.9474 23.1069 18.8596 23.1069H9.01587C7.92807 23.1069 6.88482 22.6748 6.11563 21.9056C5.34643 21.1364 4.91431 20.0932 4.91431 19.0054V9.16162C4.91431 8.07382 5.34643 7.03057 6.11563 6.26138C6.88482 5.49219 7.92807 5.06006 9.01587 5.06006H18.8596C19.9474 5.06006 20.9907 5.49219 21.7599 6.26138C22.5291 7.03057 22.9612 8.07382 22.9612 9.16162V19.0054ZM20.5002 8.75146C20.5002 8.99483 20.4281 9.23273 20.2929 9.43508C20.1577 9.63743 19.9655 9.79514 19.7407 9.88827C19.5158 9.9814 19.2684 10.0058 19.0297 9.95829C18.791 9.91081 18.5718 9.79362 18.3997 9.62154C18.2276 9.44945 18.1104 9.23021 18.0629 8.99152C18.0155 8.75283 18.0398 8.50542 18.133 8.28058C18.2261 8.05575 18.3838 7.86357 18.5862 7.72837C18.7885 7.59316 19.0264 7.521 19.2698 7.521C19.5961 7.521 19.9091 7.65063 20.1398 7.88139C20.3706 8.11215 20.5002 8.42512 20.5002 8.75146Z" fill="white"/>
</svg>
