<svg width="21" height="20" viewBox="0 0 21 20" fill="none" xmlns="http://www.w3.org/2000/svg">
<path d="M10.4 6.25C9.65831 6.25 8.93329 6.46993 8.31661 6.88199C7.69992 7.29404 7.21927 7.87971 6.93545 8.56494C6.65162 9.25016 6.57735 10.0042 6.72205 10.7316C6.86674 11.459 7.2239 12.1272 7.74834 12.6517C8.27279 13.1761 8.94098 13.5333 9.66841 13.6779C10.3958 13.8226 11.1498 13.7484 11.8351 13.4645C12.5203 13.1807 13.1059 12.7001 13.518 12.0834C13.9301 11.4667 14.15 10.7417 14.15 10C14.149 9.00576 13.7535 8.05253 13.0505 7.34949C12.3475 6.64645 11.3942 6.25103 10.4 6.25ZM10.4 12.5C9.90554 12.5 9.42219 12.3534 9.01107 12.0787C8.59995 11.804 8.27951 11.4135 8.09029 10.9567C7.90108 10.4999 7.85157 9.99723 7.94803 9.51227C8.04449 9.02732 8.2826 8.58186 8.63223 8.23223C8.98186 7.8826 9.42732 7.6445 9.91227 7.54804C10.3972 7.45157 10.8999 7.50108 11.3567 7.6903C11.8135 7.87952 12.204 8.19995 12.4787 8.61107C12.7534 9.0222 12.9 9.50555 12.9 10C12.9 10.663 12.6366 11.2989 12.1678 11.7678C11.6989 12.2366 11.063 12.5 10.4 12.5ZM14.15 1.875H6.64999C5.49005 1.87624 4.37797 2.33758 3.55777 3.15778C2.73757 3.97798 2.27623 5.09006 2.27499 6.25V13.75C2.27623 14.9099 2.73757 16.022 3.55777 16.8422C4.37797 17.6624 5.49005 18.1238 6.64999 18.125H14.15C15.3099 18.1238 16.422 17.6624 17.2422 16.8422C18.0624 16.022 18.5238 14.9099 18.525 13.75V6.25C18.5238 5.09006 18.0624 3.97798 17.2422 3.15778C16.422 2.33758 15.3099 1.87624 14.15 1.875ZM17.275 13.75C17.275 14.5788 16.9458 15.3737 16.3597 15.9597C15.7737 16.5458 14.9788 16.875 14.15 16.875H6.64999C5.82119 16.875 5.02634 16.5458 4.44029 15.9597C3.85423 15.3737 3.52499 14.5788 3.52499 13.75V6.25C3.52499 5.4212 3.85423 4.62634 4.44029 4.04029C5.02634 3.45424 5.82119 3.125 6.64999 3.125H14.15C14.9788 3.125 15.7737 3.45424 16.3597 4.04029C16.9458 4.62634 17.275 5.4212 17.275 6.25V13.75ZM15.4 5.9375C15.4 6.12292 15.345 6.30418 15.242 6.45835C15.139 6.61252 14.9926 6.73268 14.8213 6.80364C14.65 6.87459 14.4615 6.89316 14.2796 6.85699C14.0977 6.82081 13.9307 6.73152 13.7996 6.60041C13.6685 6.4693 13.5792 6.30225 13.543 6.1204C13.5068 5.93854 13.5254 5.75004 13.5964 5.57873C13.6673 5.40743 13.7875 5.26101 13.9416 5.158C14.0958 5.05498 14.2771 5 14.4625 5C14.7111 5 14.9496 5.09877 15.1254 5.27459C15.3012 5.4504 15.4 5.68886 15.4 5.9375Z" fill="#62768A"/>
</svg>
