<svg width="21" height="20" viewBox="0 0 21 20" fill="none" xmlns="http://www.w3.org/2000/svg">
<path d="M17.275 1.875H3.52499C3.19347 1.875 2.87553 2.0067 2.64111 2.24112C2.40669 2.47554 2.27499 2.79348 2.27499 3.125V16.875C2.27499 17.2065 2.40669 17.5245 2.64111 17.7589C2.87553 17.9933 3.19347 18.125 3.52499 18.125H17.275C17.6065 18.125 17.9245 17.9933 18.1589 17.7589C18.3933 17.5245 18.525 17.2065 18.525 16.875V3.125C18.525 2.79348 18.3933 2.47554 18.1589 2.24112C17.9245 2.0067 17.6065 1.875 17.275 1.875ZM17.275 16.875H3.52499V3.125H17.275V16.875ZM7.89999 8.75V13.75C7.89999 13.9158 7.83415 14.0747 7.71694 14.1919C7.59973 14.3092 7.44075 14.375 7.27499 14.375C7.10923 14.375 6.95026 14.3092 6.83305 14.1919C6.71584 14.0747 6.64999 13.9158 6.64999 13.75V8.75C6.64999 8.58424 6.71584 8.42527 6.83305 8.30806C6.95026 8.19085 7.10923 8.125 7.27499 8.125C7.44075 8.125 7.59973 8.19085 7.71694 8.30806C7.83415 8.42527 7.89999 8.58424 7.89999 8.75ZM14.775 10.9375V13.75C14.775 13.9158 14.7091 14.0747 14.5919 14.1919C14.4747 14.3092 14.3158 14.375 14.15 14.375C13.9842 14.375 13.8253 14.3092 13.7081 14.1919C13.5908 14.0747 13.525 13.9158 13.525 13.75V10.9375C13.525 10.5231 13.3604 10.1257 13.0673 9.83265C12.7743 9.53962 12.3769 9.375 11.9625 9.375C11.5481 9.375 11.1507 9.53962 10.8576 9.83265C10.5646 10.1257 10.4 10.5231 10.4 10.9375V13.75C10.4 13.9158 10.3341 14.0747 10.2169 14.1919C10.0997 14.3092 9.94075 14.375 9.77499 14.375C9.60923 14.375 9.45026 14.3092 9.33305 14.1919C9.21584 14.0747 9.14999 13.9158 9.14999 13.75V8.75C9.15077 8.59691 9.20771 8.44943 9.31 8.33553C9.4123 8.22164 9.55285 8.14925 9.70497 8.1321C9.8571 8.11495 10.0102 8.15423 10.1353 8.2425C10.2604 8.33076 10.3487 8.46186 10.3836 8.61094C10.8064 8.32412 11.2993 8.15789 11.8095 8.13009C12.3196 8.1023 12.8277 8.21399 13.2792 8.45317C13.7306 8.69236 14.1084 9.05 14.372 9.48769C14.6355 9.92538 14.7748 10.4266 14.775 10.9375ZM8.21249 6.5625C8.21249 6.74792 8.15751 6.92918 8.0545 7.08335C7.95148 7.23752 7.80507 7.35768 7.63376 7.42864C7.46245 7.49959 7.27395 7.51816 7.0921 7.48199C6.91024 7.44581 6.74319 7.35652 6.61208 7.22541C6.48097 7.0943 6.39168 6.92725 6.35551 6.7454C6.31933 6.56354 6.3379 6.37504 6.40886 6.20373C6.47981 6.03243 6.59998 5.88601 6.75415 5.783C6.90832 5.67998 7.08957 5.625 7.27499 5.625C7.52363 5.625 7.76209 5.72377 7.93791 5.89959C8.11372 6.0754 8.21249 6.31386 8.21249 6.5625Z" fill="#62768A"/>
</svg>
