<svg width="27" height="28" viewBox="0 0 27 28" fill="none" xmlns="http://www.w3.org/2000/svg">
<path d="M22.8984 3.41943H4.85156C4.41644 3.41943 3.99914 3.59228 3.69147 3.89996C3.38379 4.20764 3.21094 4.62494 3.21094 5.06006V23.1069C3.21094 23.5421 3.38379 23.9594 3.69147 24.267C3.99914 24.5747 4.41644 24.7476 4.85156 24.7476H22.8984C23.3336 24.7476 23.7509 24.5747 24.0585 24.267C24.3662 23.9594 24.5391 23.5421 24.5391 23.1069V5.06006C24.5391 4.62494 24.3662 4.20764 24.0585 3.89996C23.7509 3.59228 23.3336 3.41943 22.8984 3.41943ZM22.8984 23.1069H4.85156V5.06006H22.8984V23.1069ZM10.5938 12.4429V19.0054C10.5938 19.2229 10.5073 19.4316 10.3535 19.5854C10.1996 19.7393 9.991 19.8257 9.77344 19.8257C9.55588 19.8257 9.34723 19.7393 9.19339 19.5854C9.03955 19.4316 8.95312 19.2229 8.95312 19.0054V12.4429C8.95312 12.2253 9.03955 12.0167 9.19339 11.8628C9.34723 11.709 9.55588 11.6226 9.77344 11.6226C9.991 11.6226 10.1996 11.709 10.3535 11.8628C10.5073 12.0167 10.5938 12.2253 10.5938 12.4429ZM19.6172 15.314V19.0054C19.6172 19.2229 19.5308 19.4316 19.3769 19.5854C19.2231 19.7393 19.0144 19.8257 18.7969 19.8257C18.5793 19.8257 18.3707 19.7393 18.2168 19.5854C18.063 19.4316 17.9766 19.2229 17.9766 19.0054V15.314C17.9766 14.7701 17.7605 14.2484 17.3759 13.8638C16.9913 13.4792 16.4697 13.2632 15.9258 13.2632C15.3819 13.2632 14.8603 13.4792 14.4757 13.8638C14.0911 14.2484 13.875 14.7701 13.875 15.314V19.0054C13.875 19.2229 13.7886 19.4316 13.6347 19.5854C13.4809 19.7393 13.2722 19.8257 13.0547 19.8257C12.8371 19.8257 12.6285 19.7393 12.4746 19.5854C12.3208 19.4316 12.2344 19.2229 12.2344 19.0054V12.4429C12.2354 12.2419 12.3101 12.0484 12.4444 11.8989C12.5787 11.7494 12.7631 11.6544 12.9628 11.6319C13.1625 11.6094 13.3634 11.6609 13.5276 11.7768C13.6918 11.8926 13.8077 12.0647 13.8535 12.2604C14.4084 11.8839 15.0554 11.6657 15.725 11.6292C16.3945 11.5928 17.0614 11.7394 17.6539 12.0533C18.2465 12.3672 18.7423 12.8366 19.0882 13.4111C19.4341 13.9856 19.617 14.6434 19.6172 15.314ZM11.0039 9.57178C11.0039 9.81514 10.9317 10.053 10.7965 10.2554C10.6613 10.4577 10.4692 10.6155 10.2443 10.7086C10.0195 10.8017 9.77207 10.8261 9.53338 10.7786C9.2947 10.7311 9.07545 10.6139 8.90336 10.4419C8.73128 10.2698 8.61409 10.0505 8.56661 9.81183C8.51913 9.57314 8.5435 9.32574 8.63663 9.1009C8.72976 8.87606 8.88748 8.68389 9.08983 8.54868C9.29218 8.41347 9.53007 8.34131 9.77344 8.34131C10.0998 8.34131 10.4128 8.47095 10.6435 8.7017C10.8743 8.93246 11.0039 9.24544 11.0039 9.57178Z" fill="white"/>
</svg>
