<svg width="20" height="20" viewBox="0 0 20 20" fill="none" xmlns="http://www.w3.org/2000/svg">
<path d="M16.875 7.50005C16.8757 6.34146 16.5836 5.20149 16.0258 4.18601C15.468 3.17053 14.6626 2.3125 13.6844 1.69159C12.7062 1.07069 11.587 0.707058 10.4307 0.634477C9.27438 0.561896 8.11847 0.782717 7.07034 1.27643C6.02221 1.77015 5.11584 2.52074 4.43544 3.45849C3.75503 4.39625 3.32265 5.49075 3.17846 6.64033C3.03426 7.78991 3.18293 8.9573 3.61065 10.034C4.03837 11.1108 4.73128 12.062 5.625 12.7993V18.7501C5.62492 18.8566 5.65211 18.9615 5.70397 19.0546C5.75584 19.1477 5.83065 19.226 5.92131 19.2821C6.01197 19.3381 6.11546 19.3701 6.22195 19.3749C6.32843 19.3797 6.43437 19.3571 6.52969 19.3094L10 17.5782L13.4711 19.3133C13.5581 19.355 13.6535 19.3761 13.75 19.3751C13.9158 19.3751 14.0747 19.3092 14.1919 19.192C14.3092 19.0748 14.375 18.9158 14.375 18.7501V12.7993C15.157 12.1552 15.7867 11.3461 16.2189 10.4299C16.6512 9.51364 16.8752 8.51311 16.875 7.50005ZM4.375 7.50005C4.375 6.38753 4.7049 5.3 5.32298 4.37497C5.94107 3.44995 6.81957 2.72897 7.84741 2.30323C8.87524 1.87749 10.0062 1.7661 11.0974 1.98314C12.1885 2.20018 13.1908 2.73591 13.9775 3.52258C14.7641 4.30925 15.2999 5.31153 15.5169 6.40267C15.734 7.49381 15.6226 8.62481 15.1968 9.65265C14.7711 10.6805 14.0501 11.559 13.1251 12.1771C12.2001 12.7952 11.1125 13.1251 10 13.1251C8.50867 13.1234 7.07889 12.5302 6.02435 11.4757C4.96982 10.4212 4.37666 8.99139 4.375 7.50005ZM13.125 17.7391L10.2789 16.3165C10.1921 16.273 10.0963 16.2504 9.99922 16.2504C9.90212 16.2504 9.80636 16.273 9.71953 16.3165L6.875 17.7391V13.6227C7.84247 14.1172 8.91348 14.375 10 14.375C11.0865 14.375 12.1575 14.1172 13.125 13.6227V17.7391ZM10 11.8751C10.8653 11.8751 11.7112 11.6185 12.4306 11.1377C13.1501 10.657 13.7108 9.97372 14.042 9.17429C14.3731 8.37487 14.4597 7.4952 14.2909 6.64653C14.1221 5.79787 13.7054 5.01832 13.0936 4.40646C12.4817 3.79461 11.7022 3.37793 10.8535 3.20912C10.0049 3.04031 9.12519 3.12695 8.32576 3.45808C7.52633 3.78921 6.84305 4.34997 6.36232 5.06943C5.88159 5.7889 5.625 6.63476 5.625 7.50005C5.62624 8.66 6.08758 9.77207 6.90778 10.5923C7.72798 11.4125 8.84006 11.8738 10 11.8751ZM10 4.37505C10.6181 4.37505 11.2223 4.55833 11.7362 4.90171C12.2501 5.24509 12.6506 5.73315 12.8871 6.30417C13.1236 6.87519 13.1855 7.50352 13.065 8.10971C12.9444 8.7159 12.6467 9.27272 12.2097 9.70976C11.7727 10.1468 11.2158 10.4444 10.6097 10.565C10.0035 10.6856 9.37513 10.6237 8.80412 10.3872C8.2331 10.1507 7.74504 9.75011 7.40166 9.23621C7.05828 8.72231 6.875 8.11812 6.875 7.50005C6.875 6.67125 7.20424 5.8764 7.79029 5.29035C8.37634 4.70429 9.1712 4.37505 10 4.37505Z" fill="#3C83F6"/>
</svg>
