<svg width="20" height="14" viewBox="0 0 20 14" fill="none" xmlns="http://www.w3.org/2000/svg">
<path d="M9.16026 9.33745C9.99791 8.77978 10.6339 7.96736 10.9741 7.0203C11.3143 6.07325 11.3407 5.04185 11.0494 4.07862C10.7581 3.1154 10.1646 2.27149 9.35653 1.67169C8.54851 1.07189 7.56891 0.748047 6.5626 0.748047C5.55629 0.748047 4.57669 1.07189 3.76867 1.67169C2.96065 2.27149 2.3671 3.1154 2.0758 4.07862C1.78449 5.04185 1.8109 6.07325 2.15111 7.0203C2.49133 7.96736 3.12729 8.77978 3.96494 9.33745C2.4497 9.89591 1.15565 10.9293 0.275881 12.2835C0.229643 12.3523 0.197527 12.4295 0.181398 12.5107C0.165269 12.592 0.165449 12.6756 0.181929 12.7568C0.198409 12.838 0.230858 12.915 0.277392 12.9836C0.323926 13.0521 0.383616 13.1107 0.452992 13.1559C0.522368 13.2012 0.600047 13.2322 0.681512 13.2472C0.762978 13.2621 0.846606 13.2607 0.927534 13.2431C1.00846 13.2255 1.08508 13.1919 1.15293 13.1444C1.22078 13.0969 1.2785 13.0364 1.32276 12.9664C1.89025 12.0935 2.66678 11.3763 3.58185 10.8798C4.49691 10.3833 5.52151 10.1232 6.5626 10.1232C7.60369 10.1232 8.62829 10.3833 9.54335 10.8798C10.4584 11.3763 11.235 12.0935 11.8024 12.9664C11.8941 13.1026 12.0357 13.1973 12.1966 13.23C12.3576 13.2626 12.5249 13.2307 12.6624 13.1409C12.8 13.0512 12.8967 12.911 12.9317 12.7506C12.9666 12.5901 12.9371 12.4224 12.8493 12.2835C11.9695 10.9293 10.6755 9.89591 9.16026 9.33745ZM3.1251 5.43745C3.1251 4.75758 3.32671 4.09297 3.70442 3.52768C4.08214 2.96238 4.619 2.52179 5.24713 2.26161C5.87525 2.00144 6.56641 1.93336 7.23322 2.066C7.90003 2.19864 8.51254 2.52603 8.99328 3.00677C9.47402 3.48751 9.80141 4.10002 9.93405 4.76683C10.0667 5.43363 9.99861 6.1248 9.73844 6.75292C9.47826 7.38104 9.03767 7.91791 8.47237 8.29562C7.90708 8.67334 7.24247 8.87495 6.5626 8.87495C5.65124 8.87391 4.77749 8.51142 4.13306 7.86699C3.48863 7.22255 3.12613 6.34881 3.1251 5.43745ZM19.5423 13.1484C19.4035 13.2389 19.2344 13.2706 19.0722 13.2365C18.91 13.2023 18.768 13.1052 18.6774 12.9664C18.1106 12.093 17.3342 11.3755 16.4189 10.8791C15.5037 10.3828 14.4788 10.1236 13.4376 10.1249C13.2718 10.1249 13.1129 10.0591 12.9957 9.94189C12.8784 9.82468 12.8126 9.66571 12.8126 9.49995C12.8126 9.33419 12.8784 9.17522 12.9957 9.05801C13.1129 8.9408 13.2718 8.87495 13.4376 8.87495C13.9438 8.87447 14.4437 8.76219 14.9015 8.54613C15.3593 8.33007 15.7637 8.01557 16.0859 7.62508C16.4081 7.2346 16.64 6.77779 16.7652 6.28727C16.8903 5.79676 16.9056 5.28466 16.8099 4.78756C16.7142 4.29047 16.5098 3.82064 16.2115 3.41166C15.9132 3.00268 15.5282 2.66464 15.0841 2.42169C14.64 2.17874 14.1477 2.03688 13.6424 2.00625C13.1371 1.97562 12.6313 2.05696 12.161 2.24448C12.0844 2.27762 12.0018 2.29506 11.9183 2.29577C11.8348 2.29647 11.752 2.28043 11.6748 2.24859C11.5975 2.21675 11.5275 2.16975 11.4688 2.11038C11.41 2.05101 11.3638 1.98046 11.3327 1.90291C11.3017 1.82536 11.2866 1.74238 11.2881 1.65887C11.2897 1.57536 11.3081 1.49302 11.342 1.41671C11.376 1.3404 11.4249 1.27167 11.4858 1.21458C11.5468 1.15749 11.6186 1.1132 11.697 1.08432C12.7731 0.655145 13.9701 0.639701 15.0569 1.04097C16.1438 1.44224 17.0435 2.23179 17.5826 3.25731C18.1217 4.28282 18.2619 5.47164 17.9761 6.59441C17.6904 7.71719 16.999 8.69437 16.0353 9.33745C17.5505 9.89591 18.8445 10.9293 19.7243 12.2835C19.8148 12.4224 19.8465 12.5915 19.8124 12.7537C19.7783 12.9158 19.6811 13.0578 19.5423 13.1484Z" fill="#3C83F6"/>
</svg>
