<svg width="21" height="20" viewBox="0 0 21 20" fill="none" xmlns="http://www.w3.org/2000/svg">
<path d="M18.155 3.6812C18.1365 3.37645 18.0071 3.08902 17.7912 2.87314C17.5753 2.65725 17.2879 2.52784 16.9831 2.50932C16.0003 2.45073 13.4886 2.54057 11.4042 4.62417L11.0331 4.99995H6.47609C6.3113 4.99902 6.14798 5.03086 5.99562 5.09363C5.84326 5.1564 5.7049 5.24884 5.58859 5.36557L2.9089 8.04682C2.74456 8.21105 2.62924 8.41782 2.57589 8.64394C2.52253 8.87006 2.53325 9.10658 2.60684 9.32695C2.68044 9.54731 2.81398 9.74281 2.9925 9.89149C3.17102 10.0402 3.38745 10.1362 3.61749 10.1687L6.62296 10.5882L10.0769 14.0421L10.4964 17.0492C10.5287 17.2792 10.6246 17.4957 10.7735 17.674C10.9223 17.8524 11.118 17.9856 11.3386 18.0585C11.467 18.1015 11.6016 18.1233 11.737 18.1234C11.901 18.1237 12.0635 18.0915 12.215 18.0288C12.3665 17.966 12.5041 17.8739 12.6198 17.7578L15.3011 15.0781C15.4178 14.9618 15.5103 14.8234 15.573 14.671C15.6358 14.5187 15.6676 14.3554 15.6667 14.1906V9.63354L16.0394 9.26088C18.1237 7.17651 18.2136 4.66479 18.155 3.6812ZM6.47609 6.24995H9.78312L6.69484 9.33745L3.79171 8.93276L6.47609 6.24995ZM12.2894 5.51167C12.8899 4.9074 13.6125 4.43823 14.4089 4.13551C15.2052 3.83278 16.057 3.70347 16.9073 3.7562C16.9621 4.60696 16.8341 5.4596 16.532 6.25679C16.2299 7.05399 15.7606 7.77729 15.1558 8.37807L10.6667 12.8656L7.80109 9.99995L12.2894 5.51167ZM14.4167 14.1906L11.7347 16.8749L11.3292 13.971L14.4167 10.8835V14.1906ZM8.62296 14.9328C8.2714 15.7031 7.09562 17.4999 3.79171 17.4999C3.62595 17.4999 3.46698 17.4341 3.34977 17.3169C3.23256 17.1997 3.16671 17.0407 3.16671 16.8749C3.16671 13.571 4.96359 12.3953 5.7339 12.0429C5.80859 12.0089 5.88925 11.9898 5.97129 11.987C6.05333 11.9841 6.13514 11.9974 6.21203 12.0261C6.28893 12.0548 6.35942 12.0984 6.41947 12.1544C6.47952 12.2104 6.52796 12.2776 6.56202 12.3523C6.59608 12.427 6.6151 12.5076 6.61799 12.5897C6.62087 12.6717 6.60757 12.7535 6.57885 12.8304C6.55012 12.9073 6.50652 12.9778 6.45056 13.0379C6.39459 13.0979 6.32734 13.1464 6.25265 13.1804C5.7503 13.4093 4.64171 14.146 4.4464 16.2203C6.52062 16.0249 7.2589 14.9164 7.48624 14.414C7.5203 14.3393 7.56874 14.2721 7.62879 14.2161C7.68885 14.1601 7.75933 14.1165 7.83623 14.0878C7.91313 14.0591 7.99493 14.0458 8.07697 14.0487C8.15901 14.0516 8.23968 14.0706 8.31437 14.1046C8.38906 14.1387 8.45631 14.1871 8.51227 14.2472C8.56824 14.3072 8.61184 14.3777 8.64056 14.4546C8.66929 14.5315 8.68259 14.6133 8.67971 14.6954C8.67682 14.7774 8.6578 14.8581 8.62374 14.9328H8.62296Z" fill="#3C83F6"/>
</svg>
