<svg width="20" height="20" viewBox="0 0 20 20" fill="none" xmlns="http://www.w3.org/2000/svg">
<path d="M15.5856 11.5787L12.5856 10.0787C12.4675 10.0199 12.3359 9.99325 12.2043 10.0015C12.0726 10.0097 11.9454 10.0525 11.8356 10.1256L10.4584 11.0444C9.82617 10.6968 9.30591 10.1766 8.95837 9.54437L9.87712 8.16719C9.95021 8.05734 9.99303 7.93016 10.0013 7.79848C10.0095 7.6668 9.98284 7.53528 9.92399 7.41719L8.42399 4.41719C8.36182 4.29163 8.26572 4.186 8.14658 4.11226C8.02745 4.03853 7.89004 3.99964 7.74993 4C6.75537 4 5.80154 4.39509 5.09828 5.09835C4.39502 5.80161 3.99993 6.75544 3.99993 7.75C4.00241 9.93727 4.8724 12.0343 6.41904 13.5809C7.96568 15.1275 10.0627 15.9975 12.2499 16C12.7424 16 13.23 15.903 13.685 15.7145C14.14 15.5261 14.5534 15.2499 14.9016 14.9017C15.2498 14.5534 15.526 14.14 15.7145 13.6851C15.9029 13.2301 15.9999 12.7425 15.9999 12.25C16 12.1107 15.9613 11.9741 15.8881 11.8555C15.8149 11.7369 15.7102 11.6411 15.5856 11.5787ZM12.2499 14.5C10.4603 14.498 8.74459 13.7862 7.47915 12.5208C6.21371 11.2553 5.50192 9.5396 5.49993 7.75C5.49979 7.2298 5.6799 6.72562 6.00961 6.32326C6.33933 5.9209 6.79828 5.64521 7.30837 5.54313L8.38462 7.69938L7.46868 9.0625C7.40024 9.16517 7.35818 9.28314 7.34624 9.40596C7.3343 9.52877 7.35285 9.65263 7.40024 9.76656C7.93685 11.0419 8.95145 12.0565 10.2268 12.5931C10.3411 12.6426 10.4659 12.6629 10.5899 12.6521C10.714 12.6413 10.8334 12.5998 10.9374 12.5312L12.3071 11.6181L14.4634 12.6944C14.3605 13.205 14.0836 13.6642 13.6799 13.9935C13.2763 14.3228 12.7709 14.5018 12.2499 14.5ZM9.99993 0.25C8.31662 0.249633 6.66188 0.685083 5.19679 1.51396C3.7317 2.34285 2.50616 3.53692 1.63947 4.97997C0.772772 6.42301 0.294445 8.06587 0.251045 9.74862C0.207644 11.4314 0.600649 13.0967 1.39181 14.5825L0.327743 17.7747C0.239604 18.039 0.226813 18.3226 0.290804 18.5938C0.354795 18.8649 0.493039 19.1129 0.690042 19.3099C0.887044 19.5069 1.13502 19.6451 1.40618 19.7091C1.67733 19.7731 1.96095 19.7603 2.22524 19.6722L5.41743 18.6081C6.72503 19.3036 8.17388 19.6921 9.65402 19.744C11.1342 19.7959 12.6067 19.51 13.9598 18.9079C15.3129 18.3057 16.5111 17.4033 17.4634 16.269C18.4156 15.1346 19.097 13.7983 19.4557 12.3613C19.8144 10.9244 19.841 9.42456 19.5335 7.97578C19.226 6.52701 18.5925 5.16732 17.6811 3.99992C16.7697 2.83253 15.6043 1.88811 14.2733 1.23836C12.9424 0.588614 11.481 0.250608 9.99993 0.25ZM9.99993 18.25C8.5496 18.251 7.12471 17.8691 5.86931 17.1428C5.77739 17.0895 5.6752 17.0563 5.56949 17.0455C5.46379 17.0347 5.357 17.0464 5.25618 17.08L1.74993 18.25L2.91899 14.7438C2.95269 14.643 2.9646 14.5362 2.95394 14.4305C2.94327 14.3248 2.91027 14.2226 2.85712 14.1306C1.94772 12.5584 1.5826 10.7299 1.8184 8.92896C2.0542 7.12801 2.87774 5.4552 4.16126 4.17006C5.44479 2.88491 7.11655 2.05925 8.91721 1.82118C10.7179 1.5831 12.5468 1.94591 14.1202 2.85333C15.6936 3.76074 16.9236 5.16204 17.6193 6.83983C18.3151 8.51762 18.4377 10.3781 17.9681 12.1327C17.4986 13.8873 16.4632 15.4379 15.0224 16.5439C13.5817 17.65 11.8163 18.2497 9.99993 18.25Z" fill="white"/>
</svg>
