<svg width="679" height="88" viewBox="0 0 679 88" fill="none" xmlns="http://www.w3.org/2000/svg">
<rect x="93.6023" y="85.0134" width="27.5455" height="64.8788" rx="13.7727" transform="rotate(-125 93.6023 85.0134)" fill="#F9AB00" stroke="black" stroke-width="3"/>
<rect x="77.4378" y="24.3667" width="27.5455" height="64.8788" rx="13.7727" transform="rotate(-53.9519 77.4378 24.3667)" fill="#34A853" stroke="black" stroke-width="3"/>
<rect x="55.3188" y="2.78051" width="27.5455" height="64.8788" rx="13.7727" transform="rotate(55.1311 55.3188 2.78051)" fill="#EA4335" stroke="black" stroke-width="3"/>
<rect x="71.3447" y="63.4638" width="27.5455" height="64.8788" rx="13.7727" transform="rotate(126.179 71.3447 63.4638)" fill="#4285FA" stroke="black" stroke-width="3"/>
<path d="M656.742 49.7176V16.4606H660.332V20.3028H660.773C661.046 19.8828 661.424 19.3475 661.907 18.6966C662.4 18.0352 663.104 17.4474 664.017 16.933C664.941 16.4081 666.19 16.1456 667.765 16.1456C669.801 16.1456 671.597 16.6548 673.15 17.6731C674.704 18.6913 675.916 20.1348 676.788 22.0034C677.659 23.872 678.095 26.0765 678.095 28.617C678.095 31.1785 677.659 33.3987 676.788 35.2778C675.916 37.1465 674.709 38.5951 673.166 39.6239C671.623 40.6422 669.843 41.1514 667.828 41.1514C666.274 41.1514 665.03 40.8942 664.096 40.3798C663.162 39.8549 662.442 39.2618 661.939 38.6004C661.435 37.9285 661.046 37.3722 660.773 36.9313H660.458V49.7176H656.742ZM660.395 28.554C660.395 30.3806 660.663 31.992 661.198 33.3882C661.734 34.774 662.516 35.8605 663.545 36.6478C664.574 37.4246 665.833 37.8131 667.324 37.8131C668.878 37.8131 670.174 37.4037 671.213 36.5848C672.263 35.7555 673.05 34.6427 673.575 33.2465C674.111 31.8398 674.378 30.2757 674.378 28.554C674.378 26.8534 674.116 25.3207 673.591 23.956C673.077 22.5808 672.295 21.4943 671.245 20.6964C670.206 19.8881 668.899 19.4839 667.324 19.4839C665.812 19.4839 664.542 19.8671 663.513 20.6334C662.484 21.3893 661.708 22.4496 661.183 23.8143C660.658 25.1685 660.395 26.7484 660.395 28.554Z" fill="white"/>
<path d="M646.219 30.7586V16.4606H649.936V40.6475H646.219V36.5533H645.967C645.4 37.7816 644.519 38.8261 643.322 39.6869C642.125 40.5372 640.614 40.9624 638.787 40.9624C637.275 40.9624 635.931 40.6317 634.756 39.9704C633.58 39.2985 632.656 38.2907 631.984 36.947C631.312 35.5928 630.977 33.8869 630.977 31.8293V16.4606H634.693V31.5774C634.693 33.341 635.186 34.7477 636.173 35.7975C637.17 36.8473 638.44 37.3722 639.984 37.3722C640.907 37.3722 641.847 37.136 642.802 36.6636C643.768 36.1912 644.576 35.4668 645.227 34.4905C645.889 33.5142 646.219 32.2702 646.219 30.7586Z" fill="white"/>
<path d="M614.344 41.1514C612.161 41.1514 610.245 40.6317 608.597 39.5924C606.959 38.5532 605.679 37.0992 604.755 35.2306C603.841 33.362 603.385 31.1785 603.385 28.68C603.385 26.1605 603.841 23.9612 604.755 22.0821C605.679 20.203 606.959 18.7438 608.597 17.7046C610.245 16.6653 612.161 16.1456 614.344 16.1456C616.528 16.1456 618.439 16.6653 620.076 17.7046C621.724 18.7438 623.005 20.203 623.918 22.0821C624.842 23.9612 625.304 26.1605 625.304 28.68C625.304 31.1785 624.842 33.362 623.918 35.2306C623.005 37.0992 621.724 38.5532 620.076 39.5924C618.439 40.6317 616.528 41.1514 614.344 41.1514ZM614.344 37.8131C616.003 37.8131 617.368 37.3879 618.439 36.5376C619.509 35.6873 620.302 34.5692 620.816 33.1835C621.331 31.7978 621.588 30.2966 621.588 28.68C621.588 27.0633 621.331 25.5569 620.816 24.1607C620.302 22.7645 619.509 21.636 618.439 20.7752C617.368 19.9143 616.003 19.4839 614.344 19.4839C612.686 19.4839 611.321 19.9143 610.25 20.7752C609.18 21.636 608.387 22.7645 607.873 24.1607C607.358 25.5569 607.101 27.0633 607.101 28.68C607.101 30.2966 607.358 31.7978 607.873 33.1835C608.387 34.5692 609.18 35.6873 610.25 36.5376C611.321 37.3879 612.686 37.8131 614.344 37.8131Z" fill="white"/>
<path d="M588.756 40.6475V16.4606H592.346V20.1138H592.598C593.039 18.917 593.837 17.946 594.992 17.2007C596.146 16.4553 597.448 16.0826 598.897 16.0826C599.17 16.0826 599.511 16.0879 599.92 16.0984C600.33 16.1089 600.639 16.1246 600.849 16.1456V19.9248C600.723 19.8933 600.435 19.8461 599.983 19.7831C599.542 19.7096 599.075 19.6729 598.582 19.6729C597.406 19.6729 596.356 19.9196 595.432 20.413C594.519 20.8959 593.795 21.5677 593.259 22.4286C592.735 23.2789 592.472 24.2499 592.472 25.3417V40.6475H588.756Z" fill="white"/>
<path d="M578.351 18.4762C578.005 17.4159 577.548 16.4659 576.981 15.626C576.425 14.7757 575.758 14.0514 574.981 13.453C574.215 12.8546 573.344 12.398 572.367 12.083C571.391 11.7681 570.32 11.6106 569.155 11.6106C567.244 11.6106 565.507 12.104 563.943 13.0908C562.379 14.0776 561.135 15.5316 560.211 17.4526C559.287 19.3737 558.825 21.7305 558.825 24.5229C558.825 27.3153 559.292 29.6721 560.227 31.5932C561.161 33.5143 562.426 34.9682 564.022 35.955C565.617 36.9418 567.412 37.4352 569.407 37.4352C571.254 37.4352 572.882 37.0415 574.288 36.2542C575.706 35.4564 576.808 34.3331 577.595 32.8844C578.393 31.4252 578.792 29.7088 578.792 27.7352L579.989 27.9872H570.289V24.5229H582.571V27.9872C582.571 30.6431 582.004 32.9526 580.87 34.9157C579.747 36.8788 578.194 38.401 576.209 39.4823C574.236 40.553 571.968 41.0884 569.407 41.0884C566.551 41.0884 564.043 40.4166 561.88 39.0728C559.728 37.7291 558.048 35.8185 556.841 33.341C555.644 30.8636 555.046 27.9242 555.046 24.5229C555.046 21.9719 555.387 19.6782 556.069 17.6416C556.762 15.5945 557.739 13.8519 558.998 12.4137C560.258 10.9755 561.749 9.87325 563.47 9.10691C565.192 8.34057 567.087 7.9574 569.155 7.9574C570.856 7.9574 572.441 8.21459 573.91 8.72898C575.391 9.23288 576.708 9.95198 577.863 10.8863C579.028 11.8101 579.999 12.9176 580.776 14.2088C581.553 15.4896 582.088 16.912 582.382 18.4762H578.351Z" fill="white"/>
<path d="M526.832 40.6475V16.4606H530.422V20.1138H530.674C531.115 18.917 531.913 17.946 533.068 17.2007C534.222 16.4553 535.524 16.0826 536.973 16.0826C537.246 16.0826 537.587 16.0879 537.996 16.0984C538.406 16.1089 538.716 16.1246 538.925 16.1456V19.9248C538.8 19.8933 538.511 19.8461 538.059 19.7831C537.619 19.7096 537.151 19.6729 536.658 19.6729C535.482 19.6729 534.432 19.9196 533.509 20.413C532.595 20.8959 531.871 21.5677 531.336 22.4286C530.811 23.2789 530.548 24.2499 530.548 25.3417V40.6475H526.832Z" fill="white"/>
<path d="M511.164 41.1514C508.834 41.1514 506.823 40.637 505.133 39.6082C503.454 38.5689 502.157 37.1202 501.244 35.2621C500.341 33.3935 499.89 31.2205 499.89 28.743C499.89 26.2655 500.341 24.082 501.244 22.1924C502.157 20.2923 503.427 18.8121 505.055 17.7518C506.692 16.681 508.603 16.1456 510.786 16.1456C512.046 16.1456 513.29 16.3556 514.518 16.7755C515.747 17.1954 516.865 17.8778 517.872 18.8226C518.88 19.7569 519.683 20.9956 520.282 22.5388C520.88 24.082 521.179 25.9821 521.179 28.2391V29.8137H502.535V26.6014H517.4C517.4 25.2367 517.127 24.019 516.581 22.9482C516.046 21.8774 515.279 21.0323 514.282 20.413C513.295 19.7936 512.13 19.4839 510.786 19.4839C509.306 19.4839 508.025 19.8513 506.944 20.5862C505.873 21.3105 505.049 22.2553 504.472 23.4206C503.895 24.5858 503.606 25.8351 503.606 27.1683V29.3099C503.606 31.1365 503.921 32.6849 504.551 33.9551C505.191 35.2149 506.078 36.1754 507.212 36.8368C508.346 37.4876 509.663 37.8131 511.164 37.8131C512.141 37.8131 513.022 37.6766 513.81 37.4036C514.608 37.1202 515.295 36.7003 515.873 36.1439C516.45 35.577 516.896 34.8737 517.211 34.0339L520.801 35.0416C520.423 36.2594 519.788 37.3302 518.896 38.254C518.004 39.1673 516.901 39.8811 515.589 40.3955C514.277 40.8994 512.802 41.1514 511.164 41.1514Z" fill="white"/>
<path d="M474.002 49.7176V16.4606H477.592V20.3028H478.033C478.306 19.8828 478.684 19.3475 479.167 18.6966C479.66 18.0352 480.364 17.4474 481.277 16.933C482.201 16.4081 483.45 16.1456 485.025 16.1456C487.061 16.1456 488.856 16.6548 490.41 17.6731C491.964 18.6913 493.176 20.1348 494.047 22.0034C494.919 23.872 495.354 26.0765 495.354 28.617C495.354 31.1785 494.919 33.3987 494.047 35.2778C493.176 37.1465 491.969 38.5951 490.426 39.6239C488.883 40.6422 487.103 41.1514 485.088 41.1514C483.534 41.1514 482.29 40.8942 481.356 40.3798C480.421 39.8549 479.702 39.2618 479.198 38.6004C478.694 37.9285 478.306 37.3722 478.033 36.9313H477.718V49.7176H474.002ZM477.655 28.554C477.655 30.3806 477.923 31.992 478.458 33.3882C478.994 34.774 479.776 35.8605 480.805 36.6478C481.833 37.4246 483.093 37.8131 484.584 37.8131C486.137 37.8131 487.434 37.4037 488.473 36.5848C489.523 35.7555 490.31 34.6427 490.835 33.2465C491.371 31.8398 491.638 30.2757 491.638 28.554C491.638 26.8534 491.376 25.3207 490.851 23.956C490.337 22.5808 489.554 21.4943 488.505 20.6964C487.465 19.8881 486.158 19.4839 484.584 19.4839C483.072 19.4839 481.802 19.8671 480.773 20.6334C479.744 21.3893 478.967 22.4496 478.443 23.8143C477.918 25.1685 477.655 26.7484 477.655 28.554Z" fill="white"/>
<path d="M457.37 41.1514C455.186 41.1514 453.27 40.6317 451.622 39.5924C449.985 38.5532 448.704 37.0992 447.78 35.2306C446.867 33.362 446.41 31.1785 446.41 28.68C446.41 26.1605 446.867 23.9612 447.78 22.0821C448.704 20.203 449.985 18.7438 451.622 17.7046C453.27 16.6653 455.186 16.1456 457.37 16.1456C459.553 16.1456 461.464 16.6653 463.102 17.7046C464.75 18.7438 466.031 20.203 466.944 22.0821C467.868 23.9612 468.33 26.1605 468.33 28.68C468.33 31.1785 467.868 33.362 466.944 35.2306C466.031 37.0992 464.75 38.5532 463.102 39.5924C461.464 40.6317 459.553 41.1514 457.37 41.1514ZM457.37 37.8131C459.029 37.8131 460.393 37.3879 461.464 36.5376C462.535 35.6873 463.327 34.5692 463.842 33.1835C464.356 31.7978 464.613 30.2966 464.613 28.68C464.613 27.0633 464.356 25.5569 463.842 24.1607C463.327 22.7645 462.535 21.636 461.464 20.7752C460.393 19.9143 459.029 19.4839 457.37 19.4839C455.711 19.4839 454.346 19.9143 453.276 20.7752C452.205 21.636 451.412 22.7645 450.898 24.1607C450.384 25.5569 450.126 27.0633 450.126 28.68C450.126 30.2966 450.384 31.7978 450.898 33.1835C451.412 34.5692 452.205 35.6873 453.276 36.5376C454.346 37.3879 455.711 37.8131 457.37 37.8131Z" fill="white"/>
<path d="M440.737 8.39832V40.6475H437.021V8.39832H440.737Z" fill="white"/>
<path d="M421.353 41.1514C419.022 41.1514 417.012 40.637 415.322 39.6082C413.642 38.5689 412.346 37.1202 411.432 35.2621C410.53 33.3935 410.078 31.2205 410.078 28.743C410.078 26.2655 410.53 24.082 411.432 22.1924C412.346 20.2923 413.616 18.8121 415.243 17.7518C416.881 16.681 418.791 16.1456 420.975 16.1456C422.235 16.1456 423.479 16.3556 424.707 16.7755C425.935 17.1954 427.053 17.8778 428.061 18.8226C429.069 19.7569 429.872 20.9956 430.47 22.5388C431.068 24.082 431.368 25.9821 431.368 28.2391V29.8137H412.724V26.6014H427.588C427.588 25.2367 427.316 24.019 426.77 22.9482C426.234 21.8774 425.468 21.0323 424.471 20.413C423.484 19.7936 422.319 19.4839 420.975 19.4839C419.495 19.4839 418.214 19.8513 417.133 20.5862C416.062 21.3105 415.238 22.2553 414.66 23.4206C414.083 24.5858 413.794 25.8351 413.794 27.1683V29.3099C413.794 31.1365 414.109 32.6849 414.739 33.9551C415.38 35.2149 416.267 36.1754 417.4 36.8368C418.534 37.4876 419.852 37.8131 421.353 37.8131C422.329 37.8131 423.211 37.6766 423.998 37.4036C424.796 37.1202 425.484 36.7003 426.061 36.1439C426.638 35.577 427.085 34.8737 427.399 34.0339L430.99 35.0416C430.612 36.2594 429.977 37.3302 429.084 38.254C428.192 39.1673 427.09 39.8811 425.778 40.3955C424.465 40.8994 422.99 41.1514 421.353 41.1514Z" fill="white"/>
<path d="M407.173 16.4606L398.229 40.6475H394.45L385.506 16.4606H389.537L396.214 35.7345H396.466L403.142 16.4606H407.173Z" fill="white"/>
<path d="M372.463 41.1514C370.133 41.1514 368.122 40.637 366.432 39.6082C364.752 38.5689 363.456 37.1202 362.543 35.2621C361.64 33.3935 361.188 31.2205 361.188 28.743C361.188 26.2655 361.64 24.082 362.543 22.1924C363.456 20.2923 364.726 18.8121 366.353 17.7518C367.991 16.681 369.902 16.1456 372.085 16.1456C373.345 16.1456 374.589 16.3556 375.817 16.7755C377.045 17.1954 378.163 17.8778 379.171 18.8226C380.179 19.7569 380.982 20.9956 381.58 22.5388C382.179 24.082 382.478 25.9821 382.478 28.2391V29.8137H363.834V26.6014H378.699C378.699 25.2367 378.426 24.019 377.88 22.9482C377.345 21.8774 376.578 21.0323 375.581 20.413C374.594 19.7936 373.429 19.4839 372.085 19.4839C370.605 19.4839 369.324 19.8513 368.243 20.5862C367.172 21.3105 366.348 22.2553 365.771 23.4206C365.193 24.5858 364.905 25.8351 364.905 27.1683V29.3099C364.905 31.1365 365.22 32.6849 365.849 33.9551C366.49 35.2149 367.377 36.1754 368.511 36.8368C369.644 37.4876 370.962 37.8131 372.463 37.8131C373.439 37.8131 374.321 37.6766 375.109 37.4036C375.906 37.1202 376.594 36.7003 377.171 36.1439C377.749 35.577 378.195 34.8737 378.51 34.0339L382.1 35.0416C381.722 36.2594 381.087 37.3302 380.195 38.254C379.302 39.1673 378.2 39.8811 376.888 40.3955C375.576 40.8994 374.101 41.1514 372.463 41.1514Z" fill="white"/>
<path d="M340.907 40.6475H330.955V8.39832H341.348C344.476 8.39832 347.153 9.04393 349.379 10.3352C351.604 11.6159 353.31 13.4582 354.496 15.8622C355.683 18.2557 356.276 21.1216 356.276 24.4599C356.276 27.8192 355.677 30.7114 354.481 33.1364C353.284 35.5508 351.541 37.409 349.253 38.7107C346.964 40.0019 344.182 40.6475 340.907 40.6475ZM334.86 37.1833H340.655C343.321 37.1833 345.531 36.6689 347.284 35.6401C349.038 34.6113 350.344 33.1469 351.205 31.2468C352.066 29.3467 352.497 27.0844 352.497 24.4599C352.497 21.8565 352.071 19.6152 351.221 17.7361C350.371 15.8465 349.101 14.3978 347.41 13.39C345.72 12.3717 343.615 11.8626 341.096 11.8626H334.86V37.1833Z" fill="white"/>
<path d="M302.312 41.1514C299.981 41.1514 297.971 40.637 296.281 39.6082C294.601 38.5689 293.305 37.1202 292.391 35.2621C291.489 33.3935 291.037 31.2205 291.037 28.743C291.037 26.2655 291.489 24.082 292.391 22.1924C293.305 20.2923 294.575 18.8121 296.202 17.7518C297.84 16.681 299.75 16.1456 301.934 16.1456C303.194 16.1456 304.438 16.3556 305.666 16.7755C306.894 17.1954 308.012 17.8778 309.02 18.8226C310.028 19.7569 310.831 20.9956 311.429 22.5388C312.027 24.082 312.327 25.9821 312.327 28.2391V29.8137H293.683V26.6014H308.547C308.547 25.2367 308.274 24.019 307.729 22.9482C307.193 21.8774 306.427 21.0323 305.43 20.413C304.443 19.7936 303.278 19.4839 301.934 19.4839C300.454 19.4839 299.173 19.8513 298.092 20.5862C297.021 21.3105 296.197 22.2553 295.619 23.4206C295.042 24.5858 294.753 25.8351 294.753 27.1683V29.3099C294.753 31.1365 295.068 32.6849 295.698 33.9551C296.338 35.2149 297.226 36.1754 298.359 36.8368C299.493 37.4876 300.811 37.8131 302.312 37.8131C303.288 37.8131 304.17 37.6766 304.957 37.4036C305.755 37.1202 306.443 36.7003 307.02 36.1439C307.597 35.577 308.044 34.8737 308.358 34.0339L311.949 35.0416C311.571 36.2594 310.936 37.3302 310.043 38.254C309.151 39.1673 308.049 39.8811 306.737 40.3955C305.424 40.8994 303.949 41.1514 302.312 41.1514Z" fill="white"/>
<path d="M285.365 8.39832V40.6475H281.648V8.39832H285.365Z" fill="white"/>
<path d="M264.39 50.2214C262.595 50.2214 261.052 49.9905 259.76 49.5286C258.469 49.0772 257.393 48.4788 256.532 47.7335C255.682 46.9986 255.005 46.2113 254.501 45.3715L257.461 43.2929C257.797 43.7338 258.222 44.2377 258.737 44.8046C259.251 45.382 259.955 45.8806 260.847 46.3005C261.75 46.7309 262.931 46.9461 264.39 46.9461C266.342 46.9461 267.954 46.4737 269.224 45.5289C270.494 44.5841 271.129 43.1039 271.129 41.0884V36.1754H270.815C270.542 36.6163 270.153 37.1622 269.649 37.8131C269.156 38.4534 268.442 39.0256 267.508 39.5295C266.584 40.0228 265.335 40.2695 263.76 40.2695C261.807 40.2695 260.054 39.8076 258.501 38.8838C256.957 37.96 255.734 36.6163 254.832 34.8527C253.939 33.0891 253.493 30.9475 253.493 28.428C253.493 25.9506 253.929 23.7933 254.8 21.9562C255.671 20.1085 256.884 18.6808 258.438 17.6731C259.991 16.6548 261.786 16.1456 263.823 16.1456C265.398 16.1456 266.647 16.4081 267.571 16.933C268.505 17.4474 269.219 18.0352 269.712 18.6966C270.216 19.3475 270.605 19.8828 270.878 20.3028H271.255V16.4606H274.846V41.3403C274.846 43.4189 274.373 45.109 273.428 46.4107C272.494 47.723 271.234 48.6835 269.649 49.2924C268.075 49.9118 266.321 50.2214 264.39 50.2214ZM264.264 36.9312C265.755 36.9312 267.014 36.5901 268.043 35.9077C269.072 35.2254 269.854 34.2438 270.389 32.9631C270.925 31.6824 271.192 30.1497 271.192 28.3651C271.192 26.6224 270.93 25.0845 270.405 23.7513C269.88 22.4181 269.103 21.3735 268.075 20.6177C267.046 19.8618 265.776 19.4839 264.264 19.4839C262.689 19.4839 261.377 19.8828 260.327 20.6807C259.288 21.4785 258.506 22.5493 257.981 23.893C257.467 25.2367 257.209 26.7274 257.209 28.3651C257.209 30.0447 257.472 31.5301 257.997 32.8214C258.532 34.1021 259.319 35.1099 260.359 35.8447C261.408 36.5691 262.71 36.9312 264.264 36.9312Z" fill="white"/>
<path d="M237.994 41.1514C235.811 41.1514 233.895 40.6317 232.247 39.5924C230.609 38.5532 229.328 37.0992 228.405 35.2306C227.491 33.362 227.035 31.1785 227.035 28.68C227.035 26.1605 227.491 23.9612 228.405 22.0821C229.328 20.203 230.609 18.7438 232.247 17.7046C233.895 16.6653 235.811 16.1456 237.994 16.1456C240.178 16.1456 242.088 16.6653 243.726 17.7046C245.374 18.7438 246.655 20.203 247.568 22.0821C248.492 23.9612 248.954 26.1605 248.954 28.68C248.954 31.1785 248.492 33.362 247.568 35.2306C246.655 37.0992 245.374 38.5532 243.726 39.5924C242.088 40.6317 240.178 41.1514 237.994 41.1514ZM237.994 37.8131C239.653 37.8131 241.018 37.3879 242.088 36.5376C243.159 35.6873 243.952 34.5692 244.466 33.1835C244.981 31.7978 245.238 30.2966 245.238 28.68C245.238 27.0633 244.981 25.5569 244.466 24.1607C243.952 22.7645 243.159 21.636 242.088 20.7752C241.018 19.9143 239.653 19.4839 237.994 19.4839C236.336 19.4839 234.971 19.9143 233.9 20.7752C232.829 21.636 232.037 22.7645 231.522 24.1607C231.008 25.5569 230.751 27.0633 230.751 28.68C230.751 30.2966 231.008 31.7978 231.522 33.1835C232.037 34.5692 232.829 35.6873 233.9 36.5376C234.971 37.3879 236.336 37.8131 237.994 37.8131Z" fill="white"/>
<path d="M211.536 41.1514C209.353 41.1514 207.437 40.6317 205.789 39.5924C204.151 38.5532 202.87 37.0992 201.947 35.2306C201.033 33.362 200.577 31.1785 200.577 28.68C200.577 26.1605 201.033 23.9612 201.947 22.0821C202.87 20.203 204.151 18.7438 205.789 17.7046C207.437 16.6653 209.353 16.1456 211.536 16.1456C213.72 16.1456 215.63 16.6653 217.268 17.7046C218.916 18.7438 220.197 20.203 221.11 22.0821C222.034 23.9612 222.496 26.1605 222.496 28.68C222.496 31.1785 222.034 33.362 221.11 35.2306C220.197 37.0992 218.916 38.5532 217.268 39.5924C215.63 40.6317 213.72 41.1514 211.536 41.1514ZM211.536 37.8131C213.195 37.8131 214.56 37.3879 215.63 36.5376C216.701 35.6873 217.494 34.5692 218.008 33.1835C218.523 31.7978 218.78 30.2966 218.78 28.68C218.78 27.0633 218.523 25.5569 218.008 24.1607C217.494 22.7645 216.701 21.636 215.63 20.7752C214.56 19.9143 213.195 19.4839 211.536 19.4839C209.878 19.4839 208.513 19.9143 207.442 20.7752C206.371 21.636 205.579 22.7645 205.064 24.1607C204.55 25.5569 204.293 27.0633 204.293 28.68C204.293 30.2966 204.55 31.7978 205.064 33.1835C205.579 34.5692 206.371 35.6873 207.442 36.5376C208.513 37.3879 209.878 37.8131 211.536 37.8131Z" fill="white"/>
<path d="M191.305 18.4762C190.959 17.4159 190.502 16.4659 189.935 15.626C189.379 14.7757 188.712 14.0514 187.935 13.453C187.169 12.8546 186.298 12.398 185.321 12.083C184.345 11.7681 183.274 11.6106 182.109 11.6106C180.198 11.6106 178.461 12.104 176.897 13.0908C175.333 14.0776 174.089 15.5316 173.165 17.4526C172.241 19.3737 171.779 21.7305 171.779 24.5229C171.779 27.3153 172.246 29.6721 173.181 31.5932C174.115 33.5143 175.38 34.9682 176.976 35.955C178.571 36.9418 180.366 37.4352 182.361 37.4352C184.209 37.4352 185.836 37.0415 187.242 36.2542C188.66 35.4564 189.762 34.3331 190.549 32.8844C191.347 31.4252 191.746 29.7088 191.746 27.7352L192.943 27.9872H183.243V24.5229H195.525V27.9872C195.525 30.6431 194.958 32.9526 193.825 34.9157C192.701 36.8788 191.148 38.401 189.164 39.4823C187.19 40.553 184.922 41.0884 182.361 41.0884C179.506 41.0884 176.997 40.4166 174.834 39.0728C172.682 37.7291 171.002 35.8185 169.795 33.341C168.598 30.8636 168 27.9242 168 24.5229C168 21.9719 168.341 19.6782 169.024 17.6416C169.716 15.5945 170.693 13.8519 171.952 12.4137C173.212 10.9755 174.703 9.87325 176.424 9.10691C178.146 8.34057 180.041 7.9574 182.109 7.9574C183.81 7.9574 185.395 8.21459 186.865 8.72898C188.345 9.23288 189.662 9.95198 190.817 10.8863C191.982 11.8101 192.953 12.9176 193.73 14.2088C194.507 15.4896 195.042 16.912 195.336 18.4762H191.305Z" fill="white"/>
<path d="M362.391 80.8918C360.837 80.8918 359.497 80.5489 358.37 79.863C357.251 79.1702 356.386 78.2044 355.777 76.9656C355.175 75.7199 354.875 74.2712 354.875 72.6195C354.875 70.9679 355.175 69.5122 355.777 68.2525C356.386 66.9857 357.233 65.9989 358.318 65.2921C359.41 64.5782 360.683 64.2213 362.139 64.2213C362.979 64.2213 363.808 64.3613 364.627 64.6412C365.446 64.9212 366.191 65.3761 366.863 66.0059C367.535 66.6288 368.07 67.4546 368.469 68.4834C368.868 69.5122 369.068 70.7789 369.068 72.2836V73.3334H356.638V71.1918H366.548C366.548 70.282 366.366 69.4702 366.002 68.7564C365.645 68.0425 365.134 67.4791 364.47 67.0662C363.812 66.6533 363.035 66.4468 362.139 66.4468C361.152 66.4468 360.298 66.6918 359.578 67.1817C358.864 67.6646 358.314 68.2945 357.929 69.0713C357.544 69.8481 357.352 70.681 357.352 71.5698V72.9975C357.352 74.2152 357.562 75.2475 357.982 76.0943C358.409 76.9341 359 77.5745 359.756 78.0154C360.512 78.4493 361.39 78.6663 362.391 78.6663C363.042 78.6663 363.63 78.5753 364.155 78.3933C364.686 78.2044 365.145 77.9244 365.53 77.5535C365.915 77.1756 366.212 76.7067 366.422 76.1468L368.816 76.8187C368.564 77.6305 368.14 78.3443 367.545 78.9602C366.95 79.5691 366.216 80.045 365.341 80.3879C364.466 80.7238 363.483 80.8918 362.391 80.8918Z" fill="white"/>
<path d="M352.076 64.4313V66.5309H343.72V64.4313H352.076ZM346.156 60.5681H348.633V75.9369C348.633 76.6367 348.735 77.1616 348.938 77.5115C349.148 77.8545 349.414 78.0854 349.735 78.2044C350.064 78.3164 350.411 78.3724 350.775 78.3724C351.048 78.3724 351.272 78.3584 351.447 78.3304C351.622 78.2954 351.762 78.2674 351.866 78.2464L352.37 80.4719C352.202 80.5349 351.968 80.5979 351.667 80.6609C351.366 80.7309 350.985 80.7659 350.523 80.7659C349.823 80.7659 349.137 80.6154 348.465 80.3145C347.8 80.0135 347.247 79.5551 346.807 78.9392C346.373 78.3234 346.156 77.5465 346.156 76.6087V60.5681Z" fill="white"/>
<path d="M330.249 70.8559V80.5559H327.771V64.4313H330.165V66.9507H330.375C330.753 66.1319 331.327 65.474 332.097 64.9772C332.866 64.4733 333.86 64.2213 335.078 64.2213C336.17 64.2213 337.125 64.4453 337.944 64.8932C338.763 65.3341 339.4 66.0059 339.854 66.9087C340.309 67.8046 340.537 68.9383 340.537 70.31V80.5559H338.059V70.478C338.059 69.2113 337.73 68.2245 337.073 67.5176C336.415 66.8038 335.512 66.4468 334.364 66.4468C333.573 66.4468 332.866 66.6183 332.244 66.9612C331.628 67.3042 331.141 67.8046 330.784 68.4624C330.427 69.1203 330.249 69.9181 330.249 70.8559Z" fill="white"/>
<path d="M316.683 80.8918C315.228 80.8918 313.95 80.5454 312.852 79.8525C311.76 79.1597 310.906 78.1904 310.29 76.9446C309.681 75.6989 309.377 74.2432 309.377 72.5776C309.377 70.8979 309.681 69.4317 310.29 68.179C310.906 66.9262 311.76 65.9534 312.852 65.2606C313.95 64.5677 315.228 64.2213 316.683 64.2213C318.139 64.2213 319.413 64.5677 320.505 65.2606C321.603 65.9534 322.457 66.9262 323.066 68.179C323.682 69.4317 323.99 70.8979 323.99 72.5776C323.99 74.2432 323.682 75.6989 323.066 76.9446C322.457 78.1904 321.603 79.1597 320.505 79.8525C319.413 80.5454 318.139 80.8918 316.683 80.8918ZM316.683 78.6663C317.789 78.6663 318.699 78.3828 319.413 77.8159C320.127 77.2491 320.655 76.5037 320.998 75.5799C321.341 74.6561 321.512 73.6553 321.512 72.5776C321.512 71.4998 321.341 70.4955 320.998 69.5647C320.655 68.6339 320.127 67.8815 319.413 67.3077C318.699 66.7338 317.789 66.4468 316.683 66.4468C315.578 66.4468 314.668 66.7338 313.954 67.3077C313.24 67.8815 312.712 68.6339 312.369 69.5647C312.026 70.4955 311.854 71.4998 311.854 72.5776C311.854 73.6553 312.026 74.6561 312.369 75.5799C312.712 76.5037 313.24 77.2491 313.954 77.8159C314.668 78.3828 315.578 78.6663 316.683 78.6663Z" fill="white"/>
<path d="M294.139 80.5558V78.6662L303.293 66.9086V66.7407H294.433V64.4312H306.485V66.4047L297.582 78.0783V78.2462H306.779V80.5558H294.139Z" fill="white"/>
<path d="M287.586 80.5558V64.4312H290.063V80.5558H287.586ZM288.846 61.7438C288.363 61.7438 287.946 61.5793 287.596 61.2504C287.253 60.9215 287.082 60.5261 287.082 60.0642C287.082 59.6023 287.253 59.2068 287.596 58.8779C287.946 58.549 288.363 58.3845 288.846 58.3845C289.329 58.3845 289.741 58.549 290.084 58.8779C290.434 59.2068 290.609 59.6023 290.609 60.0642C290.609 60.5261 290.434 60.9215 290.084 61.2504C289.741 61.5793 289.329 61.7438 288.846 61.7438Z" fill="white"/>
<path d="M276.587 80.5559V64.4313H278.98V66.8668H279.148C279.442 66.0689 279.974 65.4216 280.744 64.9247C281.514 64.4278 282.382 64.1793 283.347 64.1793C283.529 64.1793 283.757 64.1828 284.03 64.1898C284.303 64.1968 284.509 64.2073 284.649 64.2213V66.7408C284.565 66.7198 284.373 66.6883 284.072 66.6463C283.778 66.5973 283.466 66.5728 283.138 66.5728C282.354 66.5728 281.654 66.7373 281.038 67.0662C280.429 67.3881 279.946 67.8361 279.589 68.4099C279.239 68.9768 279.064 69.6242 279.064 70.352V80.5559H276.587Z" fill="white"/>
<path d="M265.499 80.8918C264.043 80.8918 262.766 80.5454 261.667 79.8525C260.575 79.1597 259.722 78.1904 259.106 76.9446C258.497 75.6989 258.192 74.2432 258.192 72.5776C258.192 70.8979 258.497 69.4317 259.106 68.179C259.722 66.9262 260.575 65.9534 261.667 65.2606C262.766 64.5677 264.043 64.2213 265.499 64.2213C266.955 64.2213 268.228 64.5677 269.32 65.2606C270.419 65.9534 271.273 66.9262 271.881 68.179C272.497 69.4317 272.805 70.8979 272.805 72.5776C272.805 74.2432 272.497 75.6989 271.881 76.9446C271.273 78.1904 270.419 79.1597 269.32 79.8525C268.228 80.5454 266.955 80.8918 265.499 80.8918ZM265.499 78.6663C266.605 78.6663 267.514 78.3828 268.228 77.8159C268.942 77.2491 269.471 76.5037 269.813 75.5799C270.156 74.6561 270.328 73.6553 270.328 72.5776C270.328 71.4998 270.156 70.4955 269.813 69.5647C269.471 68.6339 268.942 67.8815 268.228 67.3077C267.514 66.7338 266.605 66.4468 265.499 66.4468C264.393 66.4468 263.483 66.7338 262.769 67.3077C262.056 67.8815 261.527 68.6339 261.184 69.5647C260.841 70.4955 260.67 71.4998 260.67 72.5776C260.67 73.6553 260.841 74.6561 261.184 75.5799C261.527 76.5037 262.056 77.2491 262.769 77.8159C263.483 78.3828 264.393 78.6663 265.499 78.6663Z" fill="white"/>
<path d="M237.401 80.5559V59.0564H240.004V68.6304H251.468V59.0564H254.071V80.5559H251.468V70.9399H240.004V80.5559H237.401Z" fill="white"/>
<path d="M217.663 80.8918C216.207 80.8918 214.93 80.5454 213.831 79.8525C212.739 79.1597 211.886 78.1904 211.27 76.9446C210.661 75.6989 210.356 74.2432 210.356 72.5776C210.356 70.8979 210.661 69.4317 211.27 68.179C211.886 66.9262 212.739 65.9534 213.831 65.2606C214.93 64.5677 216.207 64.2213 217.663 64.2213C219.119 64.2213 220.392 64.5677 221.484 65.2606C222.583 65.9534 223.437 66.9262 224.046 68.179C224.661 69.4317 224.969 70.8979 224.969 72.5776C224.969 74.2432 224.661 75.6989 224.046 76.9446C223.437 78.1904 222.583 79.1597 221.484 79.8525C220.392 80.5454 219.119 80.8918 217.663 80.8918ZM217.663 78.6663C218.769 78.6663 219.678 78.3828 220.392 77.8159C221.106 77.2491 221.635 76.5037 221.977 75.5799C222.32 74.6561 222.492 73.6553 222.492 72.5776C222.492 71.4998 222.32 70.4955 221.977 69.5647C221.635 68.6339 221.106 67.8815 220.392 67.3077C219.678 66.7338 218.769 66.4468 217.663 66.4468C216.557 66.4468 215.647 66.7338 214.933 67.3077C214.22 67.8815 213.691 68.6339 213.348 69.5647C213.005 70.4955 212.834 71.4998 212.834 72.5776C212.834 73.6553 213.005 74.6561 213.348 75.5799C213.691 76.5037 214.22 77.2491 214.933 77.8159C215.647 78.3828 216.557 78.6663 217.663 78.6663Z" fill="white"/>
<path d="M206.575 59.0564V80.5559H204.097V59.0564H206.575Z" fill="white"/>
<path d="M193.652 80.8918C192.098 80.8918 190.758 80.5489 189.632 79.863C188.512 79.1702 187.647 78.2044 187.039 76.9656C186.437 75.7199 186.136 74.2712 186.136 72.6195C186.136 70.9679 186.437 69.5122 187.039 68.2525C187.647 66.9857 188.494 65.9989 189.579 65.2921C190.671 64.5782 191.945 64.2213 193.4 64.2213C194.24 64.2213 195.069 64.3613 195.888 64.6412C196.707 64.9212 197.452 65.3761 198.124 66.0059C198.796 66.6288 199.331 67.4546 199.73 68.4834C200.129 69.5122 200.329 70.7789 200.329 72.2836V73.3334H187.899V71.1918H197.809C197.809 70.282 197.627 69.4702 197.263 68.7564C196.906 68.0425 196.396 67.4791 195.731 67.0662C195.073 66.6533 194.296 66.4468 193.4 66.4468C192.413 66.4468 191.56 66.6918 190.839 67.1817C190.125 67.6646 189.576 68.2945 189.191 69.0713C188.806 69.8481 188.613 70.681 188.613 71.5698V72.9975C188.613 74.2152 188.823 75.2475 189.243 76.0943C189.67 76.9341 190.261 77.5745 191.017 78.0154C191.773 78.4493 192.651 78.6663 193.652 78.6663C194.303 78.6663 194.891 78.5753 195.416 78.3933C195.948 78.2044 196.406 77.9244 196.791 77.5535C197.176 77.1756 197.473 76.7067 197.683 76.1468L200.077 76.8187C199.825 77.6305 199.401 78.3443 198.807 78.9602C198.212 79.5691 197.477 80.045 196.602 80.3879C195.727 80.7238 194.744 80.8918 193.652 80.8918Z" fill="white"/>
<path d="M168 80.5559V59.0564H175.516C177.014 59.0564 178.249 59.3153 179.222 59.8332C180.195 60.3441 180.919 61.0335 181.395 61.9013C181.871 62.7621 182.109 63.7174 182.109 64.7672C182.109 65.691 181.945 66.4538 181.616 67.0557C181.294 67.6576 180.867 68.1335 180.335 68.4834C179.81 68.8333 179.24 69.0923 178.624 69.2602V69.4702C179.282 69.5122 179.943 69.7431 180.608 70.1631C181.273 70.583 181.829 71.1848 182.277 71.9687C182.725 72.7525 182.949 73.7113 182.949 74.8451C182.949 75.9228 182.704 76.8921 182.214 77.753C181.724 78.6138 180.951 79.2961 179.894 79.8C178.837 80.3039 177.462 80.5559 175.768 80.5559H168ZM170.603 78.2464H175.768C177.469 78.2464 178.676 77.9174 179.39 77.2596C180.111 76.5947 180.471 75.7899 180.471 74.8451C180.471 74.1172 180.286 73.4454 179.915 72.8295C179.544 72.2066 179.016 71.7097 178.33 71.3388C177.644 70.9609 176.832 70.7719 175.894 70.7719H170.603V78.2464ZM170.603 68.5044H175.432C176.216 68.5044 176.923 68.3504 177.553 68.0425C178.19 67.7346 178.694 67.3007 179.065 66.7408C179.443 66.1809 179.632 65.523 179.632 64.7672C179.632 63.8224 179.303 63.0211 178.645 62.3632C177.987 61.6983 176.944 61.3659 175.516 61.3659H170.603V68.5044Z" fill="white"/>
</svg>
